<svg width="800" height="800" viewBox="0 0 800 800" fill="none" xmlns="http://www.w3.org/2000/svg">
<path d="M730.04 433.333H561.687C546.244 509.407 478.987 566.667 398.354 566.667C317.723 566.667 250.464 509.407 235.022 433.333H66.667C83.391 601.777 225.51 733.333 398.354 733.333C571.2 733.333 713.317 601.777 730.04 433.333Z" fill="#E1E1E1"/>
<path d="M730.04 366.666C713.317 198.223 571.2 66.6665 398.354 66.6665C225.51 66.6665 83.391 198.223 66.667 366.666H235.022C250.464 290.592 317.723 233.333 398.354 233.333C478.987 233.333 546.244 290.592 561.687 366.666H730.04Z" fill="#E1E1E1"/>
<path fill-rule="evenodd" clip-rule="evenodd" d="M398.353 500C453.583 500 498.353 455.23 498.353 400C498.353 344.77 453.583 300 398.353 300C343.126 300 298.354 344.77 298.354 400C298.354 455.23 343.126 500 398.353 500ZM448.353 400C448.353 427.613 425.97 450 398.353 450C370.74 450 348.353 427.613 348.353 400C348.353 372.387 370.74 350 398.353 350C425.97 350 448.353 372.387 448.353 400Z" fill="#E1E1E1"/>
</svg>
